<svg width="1062" height="484" viewBox="0 0 1062 484" fill="none" xmlns="http://www.w3.org/2000/svg">
<rect width="1062" height="484" fill="white"/>
<path d="M305 247C305 230.5 291.5 217 275 217C273.875 217 273.125 217.75 273.125 218.875C273.125 220 273.875 220.75 275 220.75C289.438 220.75 301.25 232.562 301.25 247C301.25 261.438 289.438 273.25 275 273.25C260.562 273.25 248.75 261.438 248.75 247C248.75 245.875 248 245.125 246.875 245.125C246.125 245.125 245.375 245.688 245.188 246.25C245 246.438 245 246.812 245 247C245 263.5 258.5 277 275 277C291.5 277 305 263.5 305 247Z" fill="#C7C7C7"/>
<path d="M249.125 238C249.875 238 250.625 237.625 250.813 236.875C251.188 235.938 250.813 234.813 249.875 234.438C248.938 234.063 247.813 234.438 247.438 235.375C247.063 236.313 247.438 237.438 248.375 237.813C248.563 237.813 248.75 238 249.125 238Z" fill="#C7C7C7"/>
<path d="M264.875 222.625C265.063 222.625 265.25 222.625 265.625 222.437C266.563 222.062 267.125 220.937 266.75 220C266.375 219.062 265.25 218.5 264.313 218.875C263.375 219.25 262.813 220.375 263.188 221.312C263.375 222.25 264.125 222.625 264.875 222.625Z" fill="#C7C7C7"/>
<path d="M256.813 225.438C256.063 224.688 254.938 224.688 254.188 225.438C253.438 226.188 253.438 227.312 254.188 228.062C254.562 228.437 255.125 228.625 255.5 228.625C256.063 228.625 256.438 228.437 256.813 228.062C257.375 227.5 257.375 226.188 256.813 225.438Z" fill="#C7C7C7"/>
<path d="M275 230.125C273.875 230.125 273.125 230.875 273.125 232V247C273.125 247.188 273.125 247.562 273.313 247.75C273.5 247.938 273.5 248.125 273.687 248.313L282.312 256.937C282.687 257.312 283.25 257.5 283.625 257.5C284 257.5 284.562 257.312 284.937 256.937C285.687 256.187 285.687 255.062 284.937 254.312L276.875 246.25V232C276.875 230.875 276.125 230.125 275 230.125Z" fill="#C7C7C7"/>
<g filter="url(#filter0_d)">
<path d="M458.626 66V37.2H450.466L447.586 30H477.346L474.466 37.2H466.306V66H458.626ZM481.195 30H501.355L509.035 37.68V54H501.355L510.955 66H500.395L490.795 54H488.875V66H481.195V30ZM488.875 46.8H501.355V41.04L497.515 37.2H488.875V46.8ZM514.805 66V30H522.485V66H514.805ZM543.595 53.52L550.315 37.68V30H557.995V38.64L545.995 66H541.195L529.195 38.64V30H536.875V37.68L543.595 53.52ZM562.805 66V30H570.485V66H562.805ZM608.395 57.36V66H600.715V61.2H584.875V66H577.195V57.36L590.395 30H595.195L608.395 57.36ZM587.035 54H598.555L592.795 42L587.035 54Z" fill="black"/>
</g>
<path d="M180.84 298.52L191.4 303.08V307.4L188.04 311H177V303.8L180.84 305.24V307.4H185.64L187.56 305.48L177 300.92V296.84L180.84 293H191.16V300.2L187.32 298.76V296.6H182.76L180.84 298.52ZM198.84 311V304.16H205.56V311H209.4V293H205.56V300.08H198.84V293H195V311H198.84ZM213 296.84L216.84 293H227.4V307.4L224.04 311H213V296.84ZM216.84 307.4H221.64L223.56 305.48V296.6H218.76L216.84 298.52V307.4ZM231 293H241.08L244.92 296.84V305H241.08L245.88 311H240.6L235.8 305H234.84V311H231V293ZM234.84 301.4H241.08V298.52L239.16 296.6H234.84V301.4ZM253.325 311V296.6H249.245L247.805 293H262.685L261.245 296.6H257.165V311H253.325ZM284.289 291.8H276.609V312.2H284.289C284.273 312.2 284.233 312.008 284.169 311.624C284.121 311.256 284.073 310.848 284.025 310.4C283.961 309.872 283.889 309.272 283.809 308.6H280.449V295.4H283.809L284.289 291.8ZM287.414 293H295.094V311H291.254V296.6H288.854L287.414 293ZM298.219 296.84L302.059 293H312.619V307.4L309.259 311H298.219V296.84ZM302.059 302.6L308.779 296.6H303.979L302.059 298.52V302.6ZM302.059 307.4H306.859L308.779 305.48V301.4L302.059 307.4ZM328.219 311V293H331.579L336.619 300.44L341.659 293H345.019V311H341.179V300.44L338.059 305H335.179L332.059 300.44V311H328.219ZM348.609 311V293H352.449V311H348.609ZM355.805 311V293H359.645V295.4L366.365 302.84V293H370.205V311H366.365V308.6L359.645 301.16V311H355.805ZM373.805 311V307.4H377.645V311C377.645 311.016 377.549 311.024 377.357 311.024C377.165 311.024 376.933 311.024 376.661 311.024C376.373 311.024 376.061 311.024 375.725 311.024C375.389 311.024 375.085 311.024 374.813 311.024C374.477 311.008 374.141 311 373.805 311ZM381.528 295.4H384.888V308.6H381.528C381.448 309.272 381.376 309.872 381.312 310.4C381.28 310.72 381.248 310.968 381.216 311.144C381.2 311.336 381.176 311.504 381.144 311.648C381.128 311.808 381.112 311.936 381.096 312.032C381.08 312.144 381.064 312.2 381.048 312.2H388.728V291.8H381.048L381.528 295.4Z" fill="#C7C7C7"/>
<path d="M574 247C574 230.5 560.5 217 544 217C542.875 217 542.125 217.75 542.125 218.875C542.125 220 542.875 220.75 544 220.75C558.438 220.75 570.25 232.562 570.25 247C570.25 261.438 558.438 273.25 544 273.25C529.562 273.25 517.75 261.438 517.75 247C517.75 245.875 517 245.125 515.875 245.125C515.125 245.125 514.375 245.688 514.188 246.25C514 246.438 514 246.812 514 247C514 263.5 527.5 277 544 277C560.5 277 574 263.5 574 247Z" fill="#565656"/>
<path d="M518.125 238C518.875 238 519.625 237.625 519.813 236.875C520.188 235.938 519.813 234.813 518.875 234.438C517.938 234.063 516.813 234.438 516.438 235.375C516.063 236.313 516.438 237.438 517.375 237.813C517.563 237.813 517.75 238 518.125 238Z" fill="#565656"/>
<path d="M533.875 222.625C534.063 222.625 534.25 222.625 534.625 222.437C535.563 222.062 536.125 220.937 535.75 220C535.375 219.062 534.25 218.5 533.313 218.875C532.375 219.25 531.813 220.375 532.188 221.312C532.375 222.25 533.125 222.625 533.875 222.625Z" fill="#565656"/>
<path d="M525.813 225.438C525.063 224.688 523.938 224.688 523.188 225.438C522.438 226.188 522.438 227.312 523.188 228.062C523.562 228.437 524.125 228.625 524.5 228.625C525.063 228.625 525.438 228.437 525.813 228.062C526.375 227.5 526.375 226.188 525.813 225.438Z" fill="#565656"/>
<path d="M544 230.125C542.875 230.125 542.125 230.875 542.125 232V247C542.125 247.188 542.125 247.562 542.313 247.75C542.5 247.938 542.5 248.125 542.687 248.313L551.312 256.937C551.687 257.312 552.25 257.5 552.625 257.5C553 257.5 553.562 257.312 553.937 256.937C554.687 256.187 554.687 255.062 553.937 254.312L545.875 246.25V232C545.875 230.875 545.125 230.125 544 230.125Z" fill="#565656"/>
<path d="M449.453 311V293H452.813L457.853 300.44L462.893 293H466.253V311H462.413V300.44L459.293 305H456.413L453.293 300.44V311H449.453ZM469.844 311H484.244L482.804 307.4H473.684V303.8H481.844V300.2H473.684V296.6H482.324L484.244 293H469.844V311ZM486.156 293H497.196L500.556 296.6V307.4L497.196 311H486.156V293ZM489.996 307.4H494.796L496.716 305.48V298.52L494.796 296.6H489.996V307.4ZM523.836 291.8H516.156V312.2H523.836C523.82 312.2 523.78 312.008 523.716 311.624C523.668 311.256 523.62 310.848 523.572 310.4C523.508 309.872 523.436 309.272 523.356 308.6H519.996V295.4H523.356L523.836 291.8ZM541.361 311H526.961V307.4L536.801 298.52V296.6H531.041V297.56L527.201 299V293H540.641V300.2L532.721 307.4H540.881L541.361 311ZM543.766 296.84L547.606 293H558.166V307.4L554.806 311H543.766V296.84ZM547.606 302.6L554.326 296.6H549.526L547.606 298.52V302.6ZM547.606 307.4H552.406L554.326 305.48V301.4L547.606 307.4ZM573.766 311V293H577.126L582.166 300.44L587.206 293H590.566V311H586.726V300.44L583.606 305H580.726L577.606 300.44V311H573.766ZM594.156 311V293H597.996V311H594.156ZM601.352 311V293H605.192V295.4L611.912 302.84V293H615.752V311H611.912V308.6L605.192 301.16V311H601.352ZM619.352 311V307.4H623.192V311C623.192 311.016 623.096 311.024 622.904 311.024C622.712 311.024 622.48 311.024 622.208 311.024C621.92 311.024 621.608 311.024 621.272 311.024C620.936 311.024 620.632 311.024 620.36 311.024C620.024 311.008 619.688 311 619.352 311ZM627.075 295.4H630.435V308.6H627.075C626.995 309.272 626.923 309.872 626.859 310.4C626.827 310.72 626.795 310.968 626.763 311.144C626.747 311.336 626.723 311.504 626.691 311.648C626.675 311.808 626.659 311.936 626.643 312.032C626.627 312.144 626.611 312.2 626.595 312.2H634.275V291.8H626.595L627.075 295.4Z" fill="#565656"/>
<path d="M822 247C822 230.5 808.5 217 792 217C790.875 217 790.125 217.75 790.125 218.875C790.125 220 790.875 220.75 792 220.75C806.438 220.75 818.25 232.562 818.25 247C818.25 261.438 806.438 273.25 792 273.25C777.562 273.25 765.75 261.438 765.75 247C765.75 245.875 765 245.125 763.875 245.125C763.125 245.125 762.375 245.688 762.188 246.25C762 246.438 762 246.812 762 247C762 263.5 775.5 277 792 277C808.5 277 822 263.5 822 247Z" fill="#C7C7C7"/>
<path d="M766.125 238C766.875 238 767.625 237.625 767.813 236.875C768.188 235.938 767.813 234.813 766.875 234.438C765.938 234.063 764.813 234.438 764.438 235.375C764.063 236.313 764.438 237.438 765.375 237.813C765.563 237.813 765.75 238 766.125 238Z" fill="#C7C7C7"/>
<path d="M781.875 222.625C782.063 222.625 782.25 222.625 782.625 222.437C783.563 222.062 784.125 220.937 783.75 220C783.375 219.062 782.25 218.5 781.313 218.875C780.375 219.25 779.813 220.375 780.188 221.312C780.375 222.25 781.125 222.625 781.875 222.625Z" fill="#C7C7C7"/>
<path d="M773.813 225.438C773.063 224.688 771.938 224.688 771.188 225.438C770.438 226.188 770.438 227.312 771.188 228.062C771.562 228.437 772.125 228.625 772.5 228.625C773.063 228.625 773.438 228.437 773.813 228.062C774.375 227.5 774.375 226.188 773.813 225.438Z" fill="#C7C7C7"/>
<path d="M792 230.125C790.875 230.125 790.125 230.875 790.125 232V247C790.125 247.188 790.125 247.562 790.313 247.75C790.5 247.938 790.5 248.125 790.687 248.313L799.312 256.937C799.687 257.312 800.25 257.5 800.625 257.5C801 257.5 801.562 257.312 801.937 256.937C802.687 256.187 802.687 255.062 801.937 254.312L793.875 246.25V232C793.875 230.875 793.125 230.125 792 230.125Z" fill="#C7C7C7"/>
<path d="M700.609 315V297H704.449V311.4H711.649L713.089 315H700.609ZM715 300.84L718.84 297H729.4V311.4L726.04 315H715V300.84ZM718.84 311.4H723.64L725.56 309.48V300.6H720.76L718.84 302.52V311.4ZM733 315V297H736.84V299.4L743.56 306.84V297H747.4V315H743.56V312.6L736.84 305.16V315H733ZM751 297V311.16L754.84 315H765.4V306H761.56V311.4H757L754.84 309.24V300.6H763.48L764.92 297H751ZM788.68 295.8H781V316.2H788.68C788.664 316.2 788.624 316.008 788.56 315.624C788.512 315.256 788.464 314.848 788.416 314.4C788.352 313.872 788.28 313.272 788.2 312.6H784.84V299.4H788.2L788.68 295.8ZM791.805 311.4V305.16L799.965 297H803.805V307.8H804.765L806.205 311.4H803.805V315H799.965V311.4H791.805ZM795.645 307.8C795.677 307.8 795.797 307.8 796.005 307.8C796.229 307.784 796.493 307.776 796.797 307.776C797.117 307.776 797.461 307.776 797.829 307.776C798.197 307.76 798.533 307.752 798.837 307.752C799.157 307.752 799.413 307.752 799.605 307.752C799.813 307.752 799.933 307.768 799.965 307.8C799.981 307.816 799.989 307.744 799.989 307.584C800.005 307.424 800.013 307.216 800.013 306.96C800.013 306.688 800.013 306.384 800.013 306.048C800.013 305.696 800.013 305.336 800.013 304.968C799.997 304.12 799.981 303.144 799.965 302.04L795.645 306.36C795.629 306.632 795.621 306.872 795.621 307.08C795.621 307.272 795.621 307.44 795.621 307.584C795.621 307.728 795.629 307.8 795.645 307.8ZM819.169 307.8V311.4H812.449V310.44L808.609 309V315H823.009V304.2H812.449V300.6H821.569L823.009 297H808.609V307.8H819.169ZM838.609 315V297H841.969L847.009 304.44L852.049 297H855.409V315H851.569V304.44L848.449 309H845.569L842.449 304.44V315H838.609ZM859 315V297H862.84V315H859ZM866.195 315V297H870.035V299.4L876.755 306.84V297H880.595V315H876.755V312.6L870.035 305.16V315H866.195ZM884.195 315V311.4H888.035V315C888.035 315.016 887.939 315.024 887.747 315.024C887.555 315.024 887.323 315.024 887.051 315.024C886.763 315.024 886.451 315.024 886.115 315.024C885.779 315.024 885.475 315.024 885.203 315.024C884.867 315.008 884.531 315 884.195 315ZM891.919 299.4H895.279V312.6H891.919C891.839 313.272 891.767 313.872 891.703 314.4C891.671 314.72 891.639 314.968 891.607 315.144C891.591 315.336 891.567 315.504 891.535 315.648C891.519 315.808 891.503 315.936 891.487 316.032C891.471 316.144 891.455 316.2 891.439 316.2H899.119V295.8H891.439L891.919 299.4Z" fill="#C7C7C7"/>
<rect x="168.5" y="113.5" width="327" height="72.3592" rx="17.5" fill="#C7C7C7" stroke="#565656" stroke-width="5"/>
<path d="M233.43 143.52L243.99 148.08V152.4L240.63 156H229.59V148.8L233.43 150.24V152.4H238.23L240.15 150.48L229.59 145.92V141.84L233.43 138H243.75V145.2L239.91 143.76V141.6H235.35L233.43 143.52ZM247.59 156V138H251.43V156H247.59ZM254.785 156V138H258.625V140.4L265.345 147.84V138H269.185V156H265.345V153.6L258.625 146.16V156H254.785ZM272.785 138V152.16L276.625 156H287.185V147H283.345V152.4H278.785L276.625 150.24V141.6H285.265L286.705 138H272.785ZM290.785 156V138H294.625V152.4H301.825L303.265 156H290.785ZM305.176 156H319.576L318.136 152.4H309.016V148.8H317.176V145.2H309.016V141.6H317.656L319.576 138H305.176V156ZM333.488 138H343.568L347.408 141.84V150H337.328V156H333.488V138ZM337.328 146.4H343.568C343.552 146.016 343.544 145.648 343.544 145.296C343.544 144.96 343.544 144.64 343.544 144.336C343.544 144.016 343.552 143.744 343.568 143.52L341.648 141.6H337.328V146.4ZM350.293 156V138H354.133V152.4H361.333L362.773 156H350.293ZM380.284 151.68V156H376.444V153.6H368.524V156H364.684V151.68L371.284 138H373.684L380.284 151.68ZM369.604 150H375.364L372.484 144L369.604 150ZM388.573 156V147.84L383.293 142.56V138H387.133V141.12L390.493 144.48L393.853 141.12V138H397.693V142.56L392.413 147.84V156H388.573ZM401.293 156H415.693L414.253 152.4H405.133V148.8H413.293V145.2H405.133V141.6H413.773L415.693 138H401.293V156ZM417.605 138H427.685L431.525 141.84V150H427.685L432.485 156H427.205L422.405 150H421.445V156H417.605V138ZM421.445 146.4H427.685V143.52L425.765 141.6H421.445V146.4Z" fill="white"/>
<rect x="168.5" y="359.5" width="750" height="91" rx="17.5" fill="white" stroke="black" stroke-width="5"/>
<path d="M478.649 395.28L494.489 402.12V408.6L489.449 414H472.889V403.2L478.649 405.36V408.6H485.849L488.729 405.72L472.889 398.88V392.76L478.649 387H494.129V397.8L488.369 395.64V392.4H481.529L478.649 395.28ZM508.169 414V392.4H502.049L499.889 387H522.209L520.049 392.4H513.929V414H508.169ZM548.496 407.52V414H542.736V410.4H530.856V414H525.096V407.52L534.996 387H538.596L548.496 407.52ZM532.476 405H541.116L536.796 396L532.476 405ZM553.01 387H568.13L573.89 392.76V405H568.13L575.33 414H567.41L560.21 405H558.77V414H553.01V387ZM558.77 399.6H568.13V395.28L565.25 392.4H558.77V399.6ZM586.497 414V392.4H580.377L578.217 387H600.537L598.377 392.4H592.257V414H586.497ZM609.184 414V408.6L603.424 406.44V414H609.184ZM609.184 405.36V387H603.424V403.2L609.184 405.36Z" fill="black"/>
<rect x="591.5" y="113.5" width="327" height="72.3592" rx="17.5" fill="white" stroke="black" stroke-width="5"/>
<path d="M660.148 156V138H663.508L668.548 145.44L673.588 138H676.948V156H673.108V145.44L669.988 150H667.108L663.988 145.44V156H660.148ZM680.539 156H691.099L694.939 152.4V138H691.099V150.48L688.939 152.4H684.379V138H680.539V156ZM698.539 156V138H702.379V152.4H709.579L711.019 156H698.539ZM718.45 156V141.6H714.37L712.93 138H727.81L726.37 141.6H722.29V156H718.45ZM729.734 156V138H733.574V156H729.734ZM748.93 138H759.01L762.85 141.84V150H752.77V156H748.93V138ZM752.77 146.4H759.01C758.994 146.016 758.986 145.648 758.986 145.296C758.986 144.96 758.986 144.64 758.986 144.336C758.986 144.016 758.994 143.744 759.01 143.52L757.09 141.6H752.77V146.4ZM765.734 156V138H769.574V152.4H776.774L778.214 156H765.734ZM795.725 151.68V156H791.885V153.6H783.965V156H780.125V151.68L786.725 138H789.125L795.725 151.68ZM785.045 150H790.805L787.925 144L785.045 150ZM804.014 156V147.84L798.734 142.56V138H802.574V141.12L805.934 144.48L809.294 141.12V138H813.134V142.56L807.854 147.84V156H804.014ZM816.734 156H831.134L829.694 152.4H820.574V148.8H828.734V145.2H820.574V141.6H829.214L831.134 138H816.734V156ZM833.047 138H843.127L846.967 141.84V150H843.127L847.927 156H842.647L837.847 150H836.887V156H833.047V138ZM836.887 146.4H843.127V143.52L841.207 141.6H836.887V146.4Z" fill="black"/>
<defs>
<filter id="filter0_d" x="443.586" y="30" width="168.809" height="44" filterUnits="userSpaceOnUse" color-interpolation-filters="sRGB">
<feFlood flood-opacity="0" result="BackgroundImageFix"/>
<feColorMatrix in="SourceAlpha" type="matrix" values="0 0 0 0 0 0 0 0 0 0 0 0 0 0 0 0 0 0 127 0"/>
<feOffset dy="4"/>
<feGaussianBlur stdDeviation="2"/>
<feColorMatrix type="matrix" values="0 0 0 0 0 0 0 0 0 0 0 0 0 0 0 0 0 0 0.25 0"/>
<feBlend mode="normal" in2="BackgroundImageFix" result="effect1_dropShadow"/>
<feBlend mode="normal" in="SourceGraphic" in2="effect1_dropShadow" result="shape"/>
</filter>
</defs>
</svg>
