<?xml version="1.0" standalone="no"?>
<!DOCTYPE svg PUBLIC "-//W3C//DTD SVG 20010904//EN"
 "http://www.w3.org/TR/2001/REC-SVG-20010904/DTD/svg10.dtd">
<svg version="1.0" xmlns="http://www.w3.org/2000/svg"
 width="373.000000pt" height="373.000000pt" viewBox="0 0 373.000000 373.000000"
 preserveAspectRatio="xMidYMid meet">
<metadata>
Created by potrace 1.11, written by Peter Selinger 2001-2013
</metadata>
<g transform="translate(0.000000,373.000000) scale(0.100000,-0.100000)"
fill="#000000" stroke="none">
<path d="M2787 3344 c-1 -1 -37 -4 -79 -7 -97 -8 -219 -39 -311 -79 -356 -157
-546 -491 -497 -874 18 -149 56 -247 134 -350 122 -162 279 -247 681 -368 282
-85 409 -155 469 -259 31 -54 39 -95 38 -182 -3 -160 -82 -284 -219 -347 -35
-15 -80 -31 -100 -34 -21 -3 -44 -7 -52 -10 -20 -7 -169 -6 -226 1 -119 15
-252 73 -416 182 -133 89 -199 95 -262 25 -39 -43 -167 -266 -162 -281 3 -9
29 -34 57 -56 28 -22 56 -45 62 -50 6 -6 40 -29 76 -51 304 -191 668 -258
1019 -187 380 76 661 369 719 748 13 84 6 298 -11 364 -30 111 -85 208 -162
286 -71 73 -136 125 -153 125 -6 0 -12 3 -14 8 -10 23 -213 106 -458 187 -275
91 -377 140 -454 219 -86 88 -95 257 -21 376 75 119 234 182 436 173 133 -5
261 -48 400 -134 117 -72 174 -80 224 -30 16 15 60 89 100 165 l73 139 -32 27
c-161 139 -398 237 -646 266 -48 5 -209 12 -213 8z"/>
<path d="M860 3310 c-5 -3 -11 -469 -12 -1035 -4 -1029 -4 -1030 -26 -1109
-27 -98 -72 -179 -126 -229 -64 -60 -101 -76 -216 -97 -59 -10 -217 -5 -253 9
-62 24 -144 7 -172 -35 -9 -14 -18 -46 -21 -72 -3 -26 -7 -64 -9 -86 -3 -21
-8 -78 -11 -126 -7 -100 -15 -90 91 -110 126 -24 205 -31 330 -30 110 1 167 5
215 15 14 3 38 8 54 11 142 25 321 126 423 237 111 122 198 297 226 457 3 14
8 41 11 60 3 19 9 49 13 65 3 17 7 490 9 1053 l2 1022 -41 0 c-328 4 -480 4
-487 0z"/>
</g>
</svg>
