<svg width="1062" height="484" viewBox="0 0 1062 484" fill="none" xmlns="http://www.w3.org/2000/svg">
<rect width="1062" height="484" fill="#07142B"/>
<path d="M305 247C305 230.5 291.5 217 275 217C273.875 217 273.125 217.75 273.125 218.875C273.125 220 273.875 220.75 275 220.75C289.438 220.75 301.25 232.562 301.25 247C301.25 261.438 289.438 273.25 275 273.25C260.562 273.25 248.75 261.438 248.75 247C248.75 245.875 248 245.125 246.875 245.125C246.125 245.125 245.375 245.688 245.188 246.25C245 246.438 245 246.812 245 247C245 263.5 258.5 277 275 277C291.5 277 305 263.5 305 247Z" fill="#205B82"/>
<path d="M249.125 238C249.875 238 250.625 237.625 250.813 236.875C251.188 235.938 250.813 234.813 249.875 234.438C248.938 234.063 247.813 234.438 247.438 235.375C247.063 236.313 247.438 237.438 248.375 237.813C248.563 237.813 248.75 238 249.125 238Z" fill="#205B82"/>
<path d="M264.875 222.625C265.063 222.625 265.25 222.625 265.625 222.438C266.563 222.063 267.125 220.938 266.75 220C266.375 219.063 265.25 218.5 264.313 218.875C263.375 219.25 262.813 220.375 263.188 221.313C263.375 222.25 264.125 222.625 264.875 222.625Z" fill="#205B82"/>
<path d="M256.813 225.438C256.063 224.688 254.938 224.688 254.188 225.438C253.438 226.188 253.438 227.312 254.188 228.062C254.562 228.437 255.125 228.625 255.5 228.625C256.063 228.625 256.438 228.437 256.813 228.062C257.375 227.5 257.375 226.188 256.813 225.438Z" fill="#205B82"/>
<path d="M275 230.125C273.875 230.125 273.125 230.875 273.125 232V247C273.125 247.188 273.125 247.562 273.313 247.75C273.5 247.938 273.5 248.125 273.687 248.313L282.312 256.937C282.687 257.312 283.25 257.5 283.625 257.5C284 257.5 284.562 257.312 284.937 256.937C285.687 256.187 285.687 255.062 284.937 254.312L276.875 246.25V232C276.875 230.875 276.125 230.125 275 230.125Z" fill="#205B82"/>
<g filter="url(#filter0_d)">
<path d="M458.626 66V37.2H450.466L447.586 30H477.346L474.466 37.2H466.306V66H458.626ZM481.195 30H501.355L509.035 37.68V54H501.355L510.955 66H500.395L490.795 54H488.875V66H481.195V30ZM488.875 46.8H501.355V41.04L497.515 37.2H488.875V46.8ZM514.805 66V30H522.485V66H514.805ZM543.595 53.52L550.315 37.68V30H557.995V38.64L545.995 66H541.195L529.195 38.64V30H536.875V37.68L543.595 53.52ZM562.805 66V30H570.485V66H562.805ZM608.395 57.36V66H600.715V61.2H584.875V66H577.195V57.36L590.395 30H595.195L608.395 57.36ZM587.035 54H598.555L592.795 42L587.035 54Z" fill="white"/>
</g>
<path d="M180.84 298.52L191.4 303.08V307.4L188.04 311H177V303.8L180.84 305.24V307.4H185.64L187.56 305.48L177 300.92V296.84L180.84 293H191.16V300.2L187.32 298.76V296.6H182.76L180.84 298.52ZM198.84 311V304.16H205.56V311H209.4V293H205.56V300.08H198.84V293H195V311H198.84ZM213 296.84L216.84 293H227.4V307.4L224.04 311H213V296.84ZM216.84 307.4H221.64L223.56 305.48V296.6H218.76L216.84 298.52V307.4ZM231 293H241.08L244.92 296.84V305H241.08L245.88 311H240.6L235.8 305H234.84V311H231V293ZM234.84 301.4H241.08V298.52L239.16 296.6H234.84V301.4ZM253.325 311V296.6H249.245L247.805 293H262.685L261.245 296.6H257.165V311H253.325ZM284.289 291.8H276.609V312.2H284.289C284.273 312.2 284.233 312.008 284.169 311.624C284.121 311.256 284.073 310.848 284.025 310.4C283.961 309.872 283.889 309.272 283.809 308.6H280.449V295.4H283.809L284.289 291.8ZM287.414 293H295.094V311H291.254V296.6H288.854L287.414 293ZM298.219 296.84L302.059 293H312.619V307.4L309.259 311H298.219V296.84ZM302.059 302.6L308.779 296.6H303.979L302.059 298.52V302.6ZM302.059 307.4H306.859L308.779 305.48V301.4L302.059 307.4ZM328.219 311V293H331.579L336.619 300.44L341.659 293H345.019V311H341.179V300.44L338.059 305H335.179L332.059 300.44V311H328.219ZM348.609 311V293H352.449V311H348.609ZM355.805 311V293H359.645V295.4L366.365 302.84V293H370.205V311H366.365V308.6L359.645 301.16V311H355.805ZM373.805 311V307.4H377.645V311C377.645 311.016 377.549 311.024 377.357 311.024C377.165 311.024 376.933 311.024 376.661 311.024C376.373 311.024 376.061 311.024 375.725 311.024C375.389 311.024 375.085 311.024 374.813 311.024C374.477 311.008 374.141 311 373.805 311ZM381.528 295.4H384.888V308.6H381.528C381.448 309.272 381.376 309.872 381.312 310.4C381.28 310.72 381.248 310.968 381.216 311.144C381.2 311.336 381.176 311.504 381.144 311.648C381.128 311.808 381.112 311.936 381.096 312.032C381.08 312.144 381.064 312.2 381.048 312.2H388.728V291.8H381.048L381.528 295.4Z" fill="#205B82"/>
<g filter="url(#filter1_d)">
<path d="M574 247C574 230.5 560.5 217 544 217C542.875 217 542.125 217.75 542.125 218.875C542.125 220 542.875 220.75 544 220.75C558.438 220.75 570.25 232.562 570.25 247C570.25 261.438 558.438 273.25 544 273.25C529.562 273.25 517.75 261.438 517.75 247C517.75 245.875 517 245.125 515.875 245.125C515.125 245.125 514.375 245.688 514.188 246.25C514 246.438 514 246.812 514 247C514 263.5 527.5 277 544 277C560.5 277 574 263.5 574 247Z" fill="#4DFAFA"/>
<path d="M518.125 238C518.875 238 519.625 237.625 519.813 236.875C520.188 235.938 519.813 234.813 518.875 234.438C517.938 234.063 516.813 234.438 516.438 235.375C516.063 236.313 516.438 237.438 517.375 237.813C517.563 237.813 517.75 238 518.125 238Z" fill="#4DFAFA"/>
<path d="M533.875 222.625C534.063 222.625 534.25 222.625 534.625 222.438C535.563 222.063 536.125 220.938 535.75 220C535.375 219.063 534.25 218.5 533.313 218.875C532.375 219.25 531.813 220.375 532.188 221.313C532.375 222.25 533.125 222.625 533.875 222.625Z" fill="#4DFAFA"/>
<path d="M525.813 225.438C525.063 224.688 523.938 224.688 523.188 225.438C522.438 226.188 522.438 227.312 523.188 228.062C523.562 228.437 524.125 228.625 524.5 228.625C525.063 228.625 525.438 228.437 525.813 228.062C526.375 227.5 526.375 226.188 525.813 225.438Z" fill="#4DFAFA"/>
<path d="M544 230.125C542.875 230.125 542.125 230.875 542.125 232V247C542.125 247.188 542.125 247.562 542.313 247.75C542.5 247.938 542.5 248.125 542.687 248.313L551.312 256.937C551.687 257.312 552.25 257.5 552.625 257.5C553 257.5 553.562 257.312 553.937 256.937C554.687 256.187 554.687 255.062 553.937 254.312L545.875 246.25V232C545.875 230.875 545.125 230.125 544 230.125Z" fill="#4DFAFA"/>
<path d="M449.453 311V293H452.813L457.853 300.44L462.893 293H466.253V311H462.413V300.44L459.293 305H456.413L453.293 300.44V311H449.453ZM469.844 311H484.244L482.804 307.4H473.684V303.8H481.844V300.2H473.684V296.6H482.324L484.244 293H469.844V311ZM486.156 293H497.196L500.556 296.6V307.4L497.196 311H486.156V293ZM489.996 307.4H494.796L496.716 305.48V298.52L494.796 296.6H489.996V307.4ZM523.836 291.8H516.156V312.2H523.836C523.82 312.2 523.78 312.008 523.716 311.624C523.668 311.256 523.62 310.848 523.572 310.4C523.508 309.872 523.436 309.272 523.356 308.6H519.996V295.4H523.356L523.836 291.8ZM541.361 311H526.961V307.4L536.801 298.52V296.6H531.041V297.56L527.201 299V293H540.641V300.2L532.721 307.4H540.881L541.361 311ZM543.766 296.84L547.606 293H558.166V307.4L554.806 311H543.766V296.84ZM547.606 302.6L554.326 296.6H549.526L547.606 298.52V302.6ZM547.606 307.4H552.406L554.326 305.48V301.4L547.606 307.4ZM573.766 311V293H577.126L582.166 300.44L587.206 293H590.566V311H586.726V300.44L583.606 305H580.726L577.606 300.44V311H573.766ZM594.156 311V293H597.996V311H594.156ZM601.352 311V293H605.192V295.4L611.912 302.84V293H615.752V311H611.912V308.6L605.192 301.16V311H601.352ZM619.352 311V307.4H623.192V311C623.192 311.016 623.096 311.024 622.904 311.024C622.712 311.024 622.48 311.024 622.208 311.024C621.92 311.024 621.608 311.024 621.272 311.024C620.936 311.024 620.632 311.024 620.36 311.024C620.024 311.008 619.688 311 619.352 311ZM627.075 295.4H630.435V308.6H627.075C626.995 309.272 626.923 309.872 626.859 310.4C626.827 310.72 626.795 310.968 626.763 311.144C626.747 311.336 626.723 311.504 626.691 311.648C626.675 311.808 626.659 311.936 626.643 312.032C626.627 312.144 626.611 312.2 626.595 312.2H634.275V291.8H626.595L627.075 295.4Z" fill="#4DFAFA"/>
</g>
<path d="M822 247C822 230.5 808.5 217 792 217C790.875 217 790.125 217.75 790.125 218.875C790.125 220 790.875 220.75 792 220.75C806.438 220.75 818.25 232.562 818.25 247C818.25 261.438 806.438 273.25 792 273.25C777.562 273.25 765.75 261.438 765.75 247C765.75 245.875 765 245.125 763.875 245.125C763.125 245.125 762.375 245.688 762.188 246.25C762 246.438 762 246.812 762 247C762 263.5 775.5 277 792 277C808.5 277 822 263.5 822 247Z" fill="#205B82"/>
<path d="M766.125 238C766.875 238 767.625 237.625 767.813 236.875C768.188 235.938 767.813 234.813 766.875 234.438C765.938 234.063 764.813 234.438 764.438 235.375C764.063 236.313 764.438 237.438 765.375 237.813C765.563 237.813 765.75 238 766.125 238Z" fill="#205B82"/>
<path d="M781.875 222.625C782.063 222.625 782.25 222.625 782.625 222.438C783.563 222.063 784.125 220.938 783.75 220C783.375 219.063 782.25 218.5 781.313 218.875C780.375 219.25 779.813 220.375 780.188 221.313C780.375 222.25 781.125 222.625 781.875 222.625Z" fill="#205B82"/>
<path d="M773.813 225.438C773.063 224.688 771.938 224.688 771.188 225.438C770.438 226.188 770.438 227.312 771.188 228.062C771.562 228.437 772.125 228.625 772.5 228.625C773.063 228.625 773.438 228.437 773.813 228.062C774.375 227.5 774.375 226.188 773.813 225.438Z" fill="#205B82"/>
<path d="M792 230.125C790.875 230.125 790.125 230.875 790.125 232V247C790.125 247.188 790.125 247.562 790.313 247.75C790.5 247.938 790.5 248.125 790.687 248.313L799.312 256.937C799.687 257.312 800.25 257.5 800.625 257.5C801 257.5 801.562 257.312 801.937 256.937C802.687 256.187 802.687 255.062 801.937 254.312L793.875 246.25V232C793.875 230.875 793.125 230.125 792 230.125Z" fill="#205B82"/>
<path d="M700.609 311V293H704.449V307.4H711.649L713.089 311H700.609ZM715 296.84L718.84 293H729.4V307.4L726.04 311H715V296.84ZM718.84 307.4H723.64L725.56 305.48V296.6H720.76L718.84 298.52V307.4ZM733 311V293H736.84V295.4L743.56 302.84V293H747.4V311H743.56V308.6L736.84 301.16V311H733ZM751 293V307.16L754.84 311H765.4V302H761.56V307.4H757L754.84 305.24V296.6H763.48L764.92 293H751ZM788.68 291.8H781V312.2H788.68C788.664 312.2 788.624 312.008 788.56 311.624C788.512 311.256 788.464 310.848 788.416 310.4C788.352 309.872 788.28 309.272 788.2 308.6H784.84V295.4H788.2L788.68 291.8ZM791.805 307.4V301.16L799.965 293H803.805V303.8H804.765L806.205 307.4H803.805V311H799.965V307.4H791.805ZM795.645 303.8C795.677 303.8 795.797 303.8 796.005 303.8C796.229 303.784 796.493 303.776 796.797 303.776C797.117 303.776 797.461 303.776 797.829 303.776C798.197 303.76 798.533 303.752 798.837 303.752C799.157 303.752 799.413 303.752 799.605 303.752C799.813 303.752 799.933 303.768 799.965 303.8C799.981 303.816 799.989 303.744 799.989 303.584C800.005 303.424 800.013 303.216 800.013 302.96C800.013 302.688 800.013 302.384 800.013 302.048C800.013 301.696 800.013 301.336 800.013 300.968C799.997 300.12 799.981 299.144 799.965 298.04L795.645 302.36C795.629 302.632 795.621 302.872 795.621 303.08C795.621 303.272 795.621 303.44 795.621 303.584C795.621 303.728 795.629 303.8 795.645 303.8ZM819.169 303.8V307.4H812.449V306.44L808.609 305V311H823.009V300.2H812.449V296.6H821.569L823.009 293H808.609V303.8H819.169ZM838.609 311V293H841.969L847.009 300.44L852.049 293H855.409V311H851.569V300.44L848.449 305H845.569L842.449 300.44V311H838.609ZM859 311V293H862.84V311H859ZM866.195 311V293H870.035V295.4L876.755 302.84V293H880.595V311H876.755V308.6L870.035 301.16V311H866.195ZM884.195 311V307.4H888.035V311C888.035 311.016 887.939 311.024 887.747 311.024C887.555 311.024 887.323 311.024 887.051 311.024C886.763 311.024 886.451 311.024 886.115 311.024C885.779 311.024 885.475 311.024 885.203 311.024C884.867 311.008 884.531 311 884.195 311ZM891.919 295.4H895.279V308.6H891.919C891.839 309.272 891.767 309.872 891.703 310.4C891.671 310.72 891.639 310.968 891.607 311.144C891.591 311.336 891.567 311.504 891.535 311.648C891.519 311.808 891.503 311.936 891.487 312.032C891.471 312.144 891.455 312.2 891.439 312.2H899.119V291.8H891.439L891.919 295.4Z" fill="#205B82"/>
<g filter="url(#filter2_d)">
<g filter="url(#filter3_d)">
<rect x="166" y="111" width="332" height="77.3592" rx="20" fill="white"/>
<rect x="168.5" y="113.5" width="327" height="72.3592" rx="17.5" stroke="#4DFAFA" stroke-width="5"/>
</g>
<path d="M233.43 143.52L243.99 148.08V152.4L240.63 156H229.59V148.8L233.43 150.24V152.4H238.23L240.15 150.48L229.59 145.92V141.84L233.43 138H243.75V145.2L239.91 143.76V141.6H235.35L233.43 143.52ZM247.59 156V138H251.43V156H247.59ZM254.785 156V138H258.625V140.4L265.345 147.84V138H269.185V156H265.345V153.6L258.625 146.16V156H254.785ZM272.785 138V152.16L276.625 156H287.185V147H283.345V152.4H278.785L276.625 150.24V141.6H285.265L286.705 138H272.785ZM290.785 156V138H294.625V152.4H301.825L303.265 156H290.785ZM305.176 156H319.576L318.136 152.4H309.016V148.8H317.176V145.2H309.016V141.6H317.656L319.576 138H305.176V156ZM333.488 138H343.568L347.408 141.84V150H337.328V156H333.488V138ZM337.328 146.4H343.568C343.552 146.016 343.544 145.648 343.544 145.296C343.544 144.96 343.544 144.64 343.544 144.336C343.544 144.016 343.552 143.744 343.568 143.52L341.648 141.6H337.328V146.4ZM350.293 156V138H354.133V152.4H361.333L362.773 156H350.293ZM380.284 151.68V156H376.444V153.6H368.524V156H364.684V151.68L371.284 138H373.684L380.284 151.68ZM369.604 150H375.364L372.484 144L369.604 150ZM388.573 156V147.84L383.293 142.56V138H387.133V141.12L390.493 144.48L393.853 141.12V138H397.693V142.56L392.413 147.84V156H388.573ZM401.293 156H415.693L414.253 152.4H405.133V148.8H413.293V145.2H405.133V141.6H413.773L415.693 138H401.293V156ZM417.605 138H427.685L431.525 141.84V150H427.685L432.485 156H427.205L422.405 150H421.445V156H417.605V138ZM421.445 146.4H427.685V143.52L425.765 141.6H421.445V146.4Z" fill="#1F1F55"/>
</g>
<rect x="591.5" y="113.5" width="327" height="72.3592" rx="17.5" fill="#205B82" stroke="#205B82" stroke-width="5"/>
<path d="M660.148 156V138H663.508L668.548 145.44L673.588 138H676.948V156H673.108V145.44L669.988 150H667.108L663.988 145.44V156H660.148ZM680.539 156H691.099L694.939 152.4V138H691.099V150.48L688.939 152.4H684.379V138H680.539V156ZM698.539 156V138H702.379V152.4H709.579L711.019 156H698.539ZM718.45 156V141.6H714.37L712.93 138H727.81L726.37 141.6H722.29V156H718.45ZM729.734 156V138H733.574V156H729.734ZM748.93 138H759.01L762.85 141.84V150H752.77V156H748.93V138ZM752.77 146.4H759.01C758.994 146.016 758.986 145.648 758.986 145.296C758.986 144.96 758.986 144.64 758.986 144.336C758.986 144.016 758.994 143.744 759.01 143.52L757.09 141.6H752.77V146.4ZM765.734 156V138H769.574V152.4H776.774L778.214 156H765.734ZM795.725 151.68V156H791.885V153.6H783.965V156H780.125V151.68L786.725 138H789.125L795.725 151.68ZM785.045 150H790.805L787.925 144L785.045 150ZM804.014 156V147.84L798.734 142.56V138H802.574V141.12L805.934 144.48L809.294 141.12V138H813.134V142.56L807.854 147.84V156H804.014ZM816.734 156H831.134L829.694 152.4H820.574V148.8H828.734V145.2H820.574V141.6H829.214L831.134 138H816.734V156ZM833.047 138H843.127L846.967 141.84V150H843.127L847.927 156H842.647L837.847 150H836.887V156H833.047V138ZM836.887 146.4H843.127V143.52L841.207 141.6H836.887V146.4Z" fill="white"/>
<path d="M1005.35 401.959C1004.02 400.762 1001.87 400.588 1000.46 401.995C999.202 403.257 999.029 405.607 1000.49 406.951L1000.5 406.954C1002.06 408.371 1003.61 409.783 1005.17 411.195L1005.17 411.195L1005.17 411.196C1006.73 412.608 1008.28 414.019 1009.84 415.435L1009.84 415.436C1012.32 417.68 1014.79 419.929 1017.27 422.178L1017.27 422.178C1019.75 424.426 1022.22 426.675 1024.7 428.92L1024.7 428.92C1024.91 429.116 1025.13 429.311 1025.34 429.507C1024.71 430.087 1024.07 430.666 1023.43 431.245L1023.42 431.248C1021.87 432.66 1020.31 434.073 1018.75 435.489C1016.28 437.734 1013.8 439.983 1011.32 442.231L1011.32 442.234C1008.84 444.482 1006.37 446.729 1003.89 448.972L1003.89 448.974C1002.77 450.002 1001.64 451.026 1000.5 452.051L1000.5 452.051C999.751 452.727 999.442 453.675 999.456 454.56C999.47 455.44 999.803 456.353 1000.46 457.013C1001.87 458.421 1004.02 458.246 1005.35 457.05L1005.36 457.046C1006.91 455.63 1008.47 454.219 1010.03 452.806C1011.58 451.395 1013.14 449.982 1014.7 448.565C1017.17 446.322 1019.65 444.074 1022.12 441.827L1022.13 441.823L1022.13 441.821C1024.6 439.573 1027.08 437.325 1029.56 435.082L1029.56 435.08C1030.68 434.053 1031.81 433.028 1032.95 432.004L1032.95 432.004L1032.95 431.998C1033.68 431.334 1034 430.382 1034 429.498C1034 428.616 1033.68 427.664 1032.95 427.006C1031.39 425.59 1029.84 424.178 1028.28 422.767L1028.28 422.766C1026.72 421.354 1025.17 419.943 1023.61 418.527L1023.61 418.526C1021.13 416.282 1018.66 414.034 1016.18 411.785L1016.18 411.785C1013.7 409.536 1011.23 407.288 1008.75 405.043C1007.63 404.017 1006.5 402.988 1005.35 401.959ZM1005.35 401.959C1005.35 401.959 1005.35 401.959 1005.35 401.959L1004.68 402.702M1005.35 401.959C1005.35 401.959 1005.35 401.959 1005.35 401.958L1004.68 402.702M1004.68 402.702C1003.69 401.808 1002.15 401.725 1001.17 402.702C1000.26 403.613 1000.18 405.303 1001.17 406.214L1022.94 419.267C1020.46 417.023 1017.98 414.774 1015.51 412.525C1013.03 410.277 1010.55 408.028 1008.08 405.783C1006.95 404.756 1005.83 403.729 1004.68 402.702Z" fill="white" stroke="white" stroke-width="2"/>
<path d="M981.899 457.046L981.895 457.05C980.562 458.25 978.434 458.416 977.014 457.019L977.008 457.013L977.008 457.013C976.347 456.353 976.014 455.44 976 454.56C975.986 453.675 976.295 452.727 977.046 452.051L977.046 452.051C978.186 451.026 979.31 450.002 980.437 448.974L980.439 448.972C982.914 446.729 985.389 444.482 987.864 442.235L987.868 442.231C990.344 439.983 992.82 437.734 995.297 435.489C996.855 434.073 998.412 432.66 999.969 431.248L999.972 431.245C1000.61 430.666 1001.25 430.087 1001.89 429.507C1001.67 429.311 1001.46 429.115 1001.24 428.92L1001.24 428.918L1001.92 428.179M981.899 457.046L981.895 401.959C980.566 400.762 978.415 400.588 977.008 401.995C975.746 403.257 975.573 405.607 977.039 406.951L977.042 406.954C978.6 408.371 980.157 409.783 981.714 411.195L981.714 411.195L981.715 411.196C983.272 412.608 984.828 414.02 986.384 415.435L986.386 415.436C988.861 417.68 991.337 419.928 993.813 422.176L993.814 422.178C996.291 424.426 998.768 426.675 1001.24 428.92L1001.92 428.179M981.899 457.046C983.456 455.63 985.012 454.219 986.57 452.806C988.126 451.395 989.684 449.982 991.241 448.565M981.899 457.046L991.241 448.565M1001.92 428.179C999.44 425.935 996.963 423.686 994.487 421.437C992.01 419.188 989.534 416.94 987.057 414.695L1002.63 428.832C1002.39 428.615 1002.16 428.397 1001.92 428.18L1001.92 428.179ZM991.241 448.565C993.717 446.322 996.192 444.074 998.667 441.827L998.671 441.823L998.677 441.818C1001.15 439.571 1003.63 437.325 1006.1 435.082L1006.1 435.08C1007.23 434.053 1008.35 433.028 1009.49 432.004L1009.49 432.004L1009.5 431.998C1010.22 431.334 1010.54 430.382 1010.54 429.498C1010.54 428.616 1010.23 427.664 1009.49 427.006C1007.94 425.59 1006.38 424.178 1004.82 422.767L1004.82 422.766C1003.27 421.354 1001.71 419.943 1000.15 418.527L1000.15 418.526C997.677 416.282 995.201 414.034 992.725 411.786L992.724 411.785L992.722 411.783C990.246 409.535 987.771 407.287 985.295 405.043C984.169 404.017 983.041 402.988 981.895 401.959L991.241 448.565Z" fill="white" stroke="white" stroke-width="2"/>
<defs>
<filter id="filter0_d" x="443.586" y="30" width="168.809" height="44" filterUnits="userSpaceOnUse" color-interpolation-filters="sRGB">
<feFlood flood-opacity="0" result="BackgroundImageFix"/>
<feColorMatrix in="SourceAlpha" type="matrix" values="0 0 0 0 0 0 0 0 0 0 0 0 0 0 0 0 0 0 127 0"/>
<feOffset dy="4"/>
<feGaussianBlur stdDeviation="2"/>
<feColorMatrix type="matrix" values="0 0 0 0 0 0 0 0 0 0 0 0 0 0 0 0 0 0 0.25 0"/>
<feBlend mode="normal" in2="BackgroundImageFix" result="effect1_dropShadow"/>
<feBlend mode="normal" in="SourceGraphic" in2="effect1_dropShadow" result="shape"/>
</filter>
<filter id="filter1_d" x="429.453" y="197" width="224.822" height="135.2" filterUnits="userSpaceOnUse" color-interpolation-filters="sRGB">
<feFlood flood-opacity="0" result="BackgroundImageFix"/>
<feColorMatrix in="SourceAlpha" type="matrix" values="0 0 0 0 0 0 0 0 0 0 0 0 0 0 0 0 0 0 127 0"/>
<feOffset/>
<feGaussianBlur stdDeviation="10"/>
<feColorMatrix type="matrix" values="0 0 0 0 1 0 0 0 0 1 0 0 0 0 1 0 0 0 1 0"/>
<feBlend mode="normal" in2="BackgroundImageFix" result="effect1_dropShadow"/>
<feBlend mode="normal" in="SourceGraphic" in2="effect1_dropShadow" result="shape"/>
</filter>
<filter id="filter2_d" x="162" y="111" width="340" height="85.3592" filterUnits="userSpaceOnUse" color-interpolation-filters="sRGB">
<feFlood flood-opacity="0" result="BackgroundImageFix"/>
<feColorMatrix in="SourceAlpha" type="matrix" values="0 0 0 0 0 0 0 0 0 0 0 0 0 0 0 0 0 0 127 0"/>
<feOffset dy="4"/>
<feGaussianBlur stdDeviation="2"/>
<feColorMatrix type="matrix" values="0 0 0 0 0 0 0 0 0 0 0 0 0 0 0 0 0 0 0.25 0"/>
<feBlend mode="normal" in2="BackgroundImageFix" result="effect1_dropShadow"/>
<feBlend mode="normal" in="SourceGraphic" in2="effect1_dropShadow" result="shape"/>
</filter>
<filter id="filter3_d" x="146" y="91" width="372" height="117.359" filterUnits="userSpaceOnUse" color-interpolation-filters="sRGB">
<feFlood flood-opacity="0" result="BackgroundImageFix"/>
<feColorMatrix in="SourceAlpha" type="matrix" values="0 0 0 0 0 0 0 0 0 0 0 0 0 0 0 0 0 0 127 0"/>
<feOffset/>
<feGaussianBlur stdDeviation="10"/>
<feColorMatrix type="matrix" values="0 0 0 0 1 0 0 0 0 1 0 0 0 0 1 0 0 0 1 0"/>
<feBlend mode="normal" in2="BackgroundImageFix" result="effect1_dropShadow"/>
<feBlend mode="normal" in="SourceGraphic" in2="effect1_dropShadow" result="shape"/>
</filter>
</defs>
</svg>
