<svg width="140" height="20" viewBox="0 0 140 20" fill="none" xmlns="http://www.w3.org/2000/svg">
<path d="M109.579 20C108.9 20 108.276 19.8775 107.706 19.6325C107.137 19.3874 106.639 19.0359 106.212 18.5778C105.796 18.1091 105.468 17.5391 105.227 16.868C104.997 16.1862 104.882 15.4192 104.882 14.5669C104.882 13.7253 105.002 12.969 105.243 12.2978C105.484 11.6267 105.818 11.0567 106.245 10.588C106.672 10.1193 107.176 9.76238 107.756 9.51736C108.336 9.26169 108.971 9.13385 109.661 9.13385C110.318 9.13385 110.892 9.26702 111.385 9.53334C111.889 9.78902 112.299 10.0873 112.617 10.4282L111.878 11.2911C111.593 10.9928 111.27 10.7531 110.909 10.572C110.548 10.3909 110.137 10.3004 109.677 10.3004C109.163 10.3004 108.697 10.4016 108.281 10.604C107.865 10.7957 107.509 11.078 107.214 11.4509C106.918 11.8131 106.688 12.2552 106.524 12.7772C106.371 13.2992 106.294 13.8851 106.294 14.535C106.294 15.1955 106.371 15.792 106.524 16.3247C106.688 16.8467 106.913 17.2941 107.197 17.667C107.482 18.0398 107.827 18.3275 108.232 18.5299C108.648 18.7323 109.113 18.8335 109.628 18.8335C110.153 18.8335 110.613 18.7323 111.007 18.5299C111.401 18.3168 111.774 18.0238 112.124 17.651L112.879 18.4819C112.452 18.9613 111.971 19.3342 111.434 19.6005C110.898 19.8668 110.279 20 109.579 20Z" fill="#212121"/>
<path d="M116.596 20C115.928 20 115.369 19.8082 114.921 19.4247C114.483 19.0412 114.264 18.4979 114.264 17.7948C114.264 16.9426 114.652 16.2927 115.43 15.8453C116.207 15.3872 117.45 15.0676 119.157 14.8865C119.157 14.6415 119.13 14.4018 119.075 14.1674C119.032 13.9331 118.949 13.7253 118.829 13.5442C118.709 13.3631 118.539 13.2193 118.32 13.1128C118.112 12.9956 117.844 12.937 117.515 12.937C117.055 12.937 116.623 13.0222 116.218 13.1927C115.813 13.3631 115.452 13.5549 115.134 13.7679L114.609 12.8571C114.981 12.6227 115.435 12.399 115.972 12.186C116.508 11.9622 117.099 11.8504 117.745 11.8504C118.72 11.8504 119.426 12.1433 119.864 12.7293C120.302 13.3045 120.521 14.0769 120.521 15.0463V19.8082H119.404L119.289 18.8814H119.24C118.856 19.1904 118.446 19.4567 118.008 19.6804C117.57 19.8935 117.099 20 116.596 20ZM116.99 18.9453C117.373 18.9453 117.734 18.8601 118.074 18.6897C118.413 18.5086 118.774 18.2476 119.157 17.9067V15.7494C118.49 15.8346 117.926 15.9358 117.466 16.053C117.017 16.1702 116.65 16.3087 116.366 16.4685C116.092 16.6283 115.889 16.8147 115.758 17.0278C115.638 17.2302 115.577 17.4539 115.577 17.6989C115.577 18.1464 115.714 18.466 115.988 18.6577C116.262 18.8495 116.596 18.9453 116.99 18.9453Z" fill="#212121"/>
<path d="M123.032 19.8082V12.0421H124.148L124.263 13.4484H124.312C124.586 12.9583 124.915 12.5695 125.298 12.2818C125.692 11.9942 126.119 11.8504 126.579 11.8504C126.896 11.8504 127.181 11.9037 127.433 12.0102L127.17 13.1607C127.039 13.1181 126.918 13.0861 126.809 13.0648C126.699 13.0435 126.562 13.0329 126.398 13.0329C126.059 13.0329 125.703 13.166 125.331 13.4324C124.969 13.6987 124.652 14.1621 124.378 14.8226V19.8082H123.032Z" fill="#212121"/>
<path d="M131.237 20C130.81 20 130.449 19.9361 130.154 19.8082C129.869 19.6804 129.633 19.5046 129.447 19.2809C129.272 19.0572 129.146 18.7855 129.07 18.466C128.993 18.1464 128.955 17.7948 128.955 17.4113V13.1128H127.772V12.122L129.02 12.0421L129.185 9.86892H130.318V12.0421H132.469V13.1128H130.318V17.4273C130.318 17.9067 130.405 18.2795 130.58 18.5459C130.767 18.8015 131.09 18.9294 131.549 18.9294C131.692 18.9294 131.845 18.9081 132.009 18.8654C132.173 18.8228 132.321 18.7749 132.453 18.7216L132.715 19.7124C132.496 19.7869 132.256 19.8509 131.993 19.9041C131.741 19.968 131.489 20 131.237 20Z" fill="#212121"/>
<path d="M135.76 20C135.092 20 134.534 19.8082 134.085 19.4247C133.647 19.0412 133.428 18.4979 133.428 17.7948C133.428 16.9426 133.817 16.2927 134.594 15.8453C135.371 15.3872 136.614 15.0676 138.322 14.8865C138.322 14.6415 138.295 14.4018 138.24 14.1674C138.196 13.9331 138.114 13.7253 137.994 13.5442C137.873 13.3631 137.703 13.2193 137.484 13.1128C137.276 12.9956 137.008 12.937 136.68 12.937C136.22 12.937 135.788 13.0222 135.382 13.1927C134.977 13.3631 134.616 13.5549 134.299 13.7679L133.773 12.8571C134.145 12.6227 134.6 12.399 135.136 12.186C135.673 11.9622 136.264 11.8504 136.91 11.8504C137.884 11.8504 138.59 12.1433 139.028 12.7293C139.466 13.3045 139.685 14.0769 139.685 15.0463V19.8082H138.568L138.453 18.8814H138.404C138.021 19.1904 137.61 19.4567 137.172 19.6804C136.735 19.8935 136.264 20 135.76 20ZM136.154 18.9453C136.537 18.9453 136.899 18.8601 137.238 18.6897C137.578 18.5086 137.939 18.2476 138.322 17.9067V15.7494C137.654 15.8346 137.09 15.9358 136.631 16.053C136.182 16.1702 135.815 16.3087 135.53 16.4685C135.257 16.6283 135.054 16.8147 134.923 17.0278C134.802 17.2302 134.742 17.4539 134.742 17.6989C134.742 18.1464 134.879 18.466 135.153 18.6577C135.426 18.8495 135.76 18.9453 136.154 18.9453Z" fill="#212121"/>
<path d="M24.9606 19.8898C21.5905 19.8898 21.3228 17.3228 21.3228 16.5669C21.3228 15.6693 21.5276 14 23.7165 13.1968C25.9055 12.3937 26.378 12.2992 27.937 11.811V11.4331C27.937 10.6772 27.937 10.5354 27.7638 10.0472C27.4961 9.18109 26.6457 8.59841 25.4646 8.59841C24.3465 8.59841 23.3858 9.22834 22.9449 10.1575L22.315 9.77952C22.6929 8.39369 24.126 7.00786 26.5827 7.00786C28.2835 7.00786 29.4646 7.49605 30.1575 8.56692C30.6772 9.43306 30.7402 10.5984 30.7402 11.7795C30.7402 12.8504 30.6772 14.0315 30.6772 14.9921C30.6772 15.622 30.6142 16.2362 30.6142 16.5827C30.6142 17.4488 30.7874 18.1417 31.4803 18.1417C31.7953 18.1417 31.8583 18.0315 32.1102 17.874L32.4882 18.3622C31.8583 19.2283 31.1024 19.9213 29.8583 19.9213C28.8976 19.9213 28.2047 19.4331 27.9213 18.6457C27.5276 19.1968 26.5039 19.8898 24.9606 19.8898ZM27.937 13.3543C26.2835 13.8425 25.685 14.1102 25.2126 14.3622C24.4567 14.7401 24.1417 15.4331 24.1417 16.3307C24.1417 17.0236 24.4094 18.1417 26.0157 18.1417C26.5354 18.1417 27.2913 18.0315 27.9842 17.559V13.3386H27.937V13.3543ZM0.110236 19.2283C0.110236 17.9842 0.110236 16.9291 0 15.6535H0.755906C0.755906 16.4567 0.96063 17.0394 1.33858 17.4173C1.85827 18 3.10236 18.3779 4.22047 18.3779C6.56693 18.3779 7.68504 17.4803 7.68504 15.5433C7.68504 13.8898 6.67717 13.1968 5.29134 12.2205L5.08661 12.0472L3.59055 11.0394C1.51181 9.65353 0.440945 8.58267 0.440945 6.39369C0.440945 5.32282 0.866142 1.79527 6.04724 1.79527C7.38583 1.79527 9.08661 1.96849 10.1102 2.11023C10.1102 2.28345 10.0472 3.07086 10.0472 3.76377C10.0472 4.56692 10.0472 4.77164 10.1102 5.73227H9.48031C9.48031 4.86613 9.2126 4.34645 8.85039 3.96849C8.3622 3.48031 7.25984 3.21259 6.07874 3.21259C3.30709 3.21259 2.99213 4.59842 2.99213 5.66928C2.99213 7.1181 3.74803 7.63778 5.38583 8.70865L7.25984 9.95275C8.85039 11.0236 10.3465 12.0315 10.3465 14.7087C10.3465 19.1968 6.12598 19.6693 4.36221 19.6693C2.74016 19.8898 1.38583 19.6535 0.110236 19.2283ZM33.6535 7.81101C34.2835 7.87401 35.2441 7.81101 36.1732 7.63779C36.9764 7.46456 37.2441 7.37007 37.8268 7.1181L38.0945 7.29133V8.25196C38.7244 7.76377 39.9685 7.07086 41.7323 7.07086C43.9842 7.07086 45.4331 8.14172 45.8425 10.0157C45.9528 10.5039 46.0157 11.6063 46.0157 12.2677V15.9055C46.0157 17.937 46.126 18.5354 46.5039 18.8976C46.7087 19.0709 47.1339 19.2756 47.748 19.2756V19.8583C46.9449 19.7953 45.4961 19.748 44.6614 19.748C43.5433 19.748 42.2677 19.811 41.5748 19.8583V19.2756C42.2047 19.2126 42.5827 19.0079 42.8189 18.8504C43.1969 18.4724 43.2441 17.7795 43.3071 16.2205C43.3071 15.7323 43.3701 14.7716 43.3701 14.0787C43.3701 13.1811 43.3701 12.2047 43.2598 11.2441C43.0866 9.65353 42.252 8.89763 40.6299 8.89763C39.5118 8.89763 38.8189 9.16534 38.2835 9.41731V15.937C38.2835 17.9685 38.3937 18.5669 38.7717 18.9291C38.9764 19.1024 39.4646 19.3071 39.9528 19.3071V19.8898C38.9449 19.8268 37.7008 19.7795 36.9134 19.7795C35.2598 19.7795 34.7244 19.8425 33.7638 19.8898V19.2756C34.2835 19.2756 34.8346 19.0709 35.1024 18.7559C35.4803 18.3307 35.5276 17.2598 35.5276 15.1811V11.4803C35.5276 9.92125 35.4646 9.29133 35.2598 8.96062C35.0866 8.6929 34.6772 8.47243 33.811 8.47243V7.77952H33.7008V7.81101H33.6535ZM49.1024 19.1968C49.622 19.1968 50.1732 19.0236 50.4409 18.6772C50.8189 18.252 50.8661 17.1811 50.8661 15.1024V8.88188H49.2756V8.18897C49.9685 7.92125 50.5512 7.60629 50.8661 7.32283C50.8661 6.20471 50.9291 4.80314 51.0709 3.99999C51.5591 1.43306 53.2126 0.157471 56.0315 0.157471C57.2756 0.157471 58.4252 0.582667 59.1811 1.16534L59.2441 1.43306L58 3.13385H57.685C57.2598 2.12597 56.6142 1.5433 55.4961 1.5433C55.1181 1.5433 54.5984 1.65353 54.252 1.96849C53.7323 2.48818 53.622 3.30708 53.622 4.91338V7.30708H56.3937V8.86613H53.622V15.7638C53.622 17.4173 53.685 18.2205 53.8898 18.5354C54.2047 19.0551 55.3386 19.1181 55.8583 19.1181V19.748C54.9606 19.685 53.5118 19.6378 52.4882 19.6378C50.9291 19.6378 49.9213 19.7008 49.1181 19.748L49.1024 19.1968ZM63.4173 19.9842C59.6378 19.9842 57.3858 17.6378 57.3858 13.685C57.3858 10.5984 59.0394 7.00786 63.685 7.00786C67.4646 7.00786 69.7165 9.35432 69.7165 13.3071C69.7165 16.3937 68.0472 19.9842 63.4173 19.9842ZM63.5748 8.44093C62.8189 8.44093 62.2362 8.64566 61.811 9.02361C60.8031 9.88975 60.315 11.3701 60.315 13.559C60.315 14.4252 60.4882 18.5827 63.5276 18.5827C64.2835 18.5827 64.8661 18.3779 65.2913 18C66.2992 17.1338 66.7874 15.6535 66.7874 13.4646C66.7717 12.6142 66.6299 8.44093 63.5748 8.44093ZM70.9921 7.74802C71.8583 7.81101 72.7559 7.68503 73.7165 7.5433C74.4724 7.43306 74.9606 7.27558 75.2126 7.1181L75.4173 7.22834V8.2992C76 7.71653 76.9764 7.1181 78.2992 7.1181C79.2598 7.1181 79.8898 7.38582 80.4882 7.87401V8.25196L79.4173 10.189H78.8976C78.5827 9.60629 77.937 9.07086 76.8189 9.07086C76.2992 9.07086 75.8583 9.18109 75.4803 9.44881V15.811C75.4803 17.4646 75.5433 18.2047 75.748 18.5354C76.063 19.0551 77.1339 19.1181 77.7165 19.0551V19.748C76.8504 19.685 75.3701 19.6378 74.3465 19.6378C73.1654 19.6378 71.9528 19.6378 70.9764 19.748V19.1181C71.6693 19.0551 72.0472 18.9134 72.315 18.5984C72.6929 18.1732 72.7402 17.1496 72.7402 15.0236V11.559C72.7402 9.99999 72.7402 9.37007 72.4724 9.03936C72.2677 8.77164 71.8425 8.61416 71.0236 8.61416V7.81101L70.9921 7.74802ZM88.4724 0.913374C89.2283 0.913374 90.1732 0.740147 91.4173 0.535423C92.1102 0.425186 92.5354 0.267706 92.7559 0.220462L92.9606 0.330698C92.8504 1.33857 92.8504 3.65353 92.8504 5.29133V15.4331C92.8504 16.9291 92.8504 17.8898 93.0551 18.2047C93.2598 18.4724 93.685 18.6929 94.5039 18.6929V19.3228C93.7008 19.3228 92.8031 19.4331 91.8425 19.5905C91.2126 19.7008 90.7244 19.7953 90.4567 19.9055L90.1417 19.7953V18.7244C89.5118 19.2126 88.3307 19.9055 86.6772 19.9055C83.2598 19.9055 81.0709 17.559 81.0709 13.874C81.0709 12.6299 81.2756 11.5275 81.7008 10.5039C82.7716 8.25196 84.9134 6.97637 87.622 6.97637C88.6299 6.97637 89.4961 7.0866 90.0158 7.18109V4.55117C90.0158 2.99212 90.0157 2.20471 89.748 1.82676C89.5748 1.55904 89.3228 1.44881 88.4094 1.40156V0.897628H88.4724V0.913374ZM88.0315 18.1575C88.8976 18.1575 89.4803 18.0472 90.063 17.6693V9.35432C89.8583 9.1496 89.1024 8.48818 87.6063 8.48818C85.2126 8.48818 84.0315 10.1417 84.0315 13.5748C83.9843 15.0079 84.4094 18.1575 88.0315 18.1575ZM20.0945 18.5354C19.7165 19.0236 18.7559 19.9842 16.7244 19.9842C14.7874 19.9842 13.7323 19.2913 13.2598 17.7323C13.0551 17.1496 13.0551 15.9213 13.0551 15.2126C13.0551 13.2441 13.0551 11.6378 13.1181 9.76377V8.89763H11.4488V8.40944C12.0787 8.14172 12.5669 7.88975 13.0079 7.5433C13.9685 6.78739 14.5984 5.88975 15.3071 4.55117H15.8268V7.32283H20.0472V8.88188H15.8268V15.4016C15.8268 17.3701 16.2047 18.4409 18.0157 18.4409C18.8819 18.4409 19.4646 18.1732 19.7795 17.9527L20.0945 18.5354Z" fill="#212121"/>
<path fill-rule="evenodd" clip-rule="evenodd" d="M100.097 0V20H99.2736V0H100.097Z" fill="#212121"/>
</svg>
